Coordinates
version=1
nRows=17
nColumns=24
inDegrees=yes

Units are S.I. units (second, meters, Newtons, ...)
Angles are in degrees.

endheader
time	pelvis_tilt	pelvis_list	pelvis_rotation	pelvis_tx	pelvis_ty	pelvis_tz	hip_flexion_r	hip_adduction_r	hip_rotation_r	knee_angle_r	ankle_angle_r	subtalar_angle_r	mtp_angle_r	hip_flexion_l	hip_adduction_l	hip_rotation_l	knee_angle_l	ankle_angle_l	subtalar_angle_l	mtp_angle_l	lumbar_extension	lumbar_bending	lumbar_rotation
      1.77466667	      1.15841152	      3.60437520	     -2.25037903	      1.37821209	      1.02465430	      0.23737236	     14.80439483	     -2.89984017	     -0.41977818	    -60.15440975	      5.15597769	    -16.14181579	      3.24862804	      3.22995602	      9.20338781	      2.21226367	     -8.01661252	      2.26893633	    -14.72089167	      7.80365507	     -0.80051113	     -4.68529562	      2.91600325
      1.77883333	      1.16317411	      3.50128016	     -1.96070047	      1.38275428	      1.02507070	      0.23677757	     15.18858511	     -2.79704703	     -0.56945456	    -59.53882767	      5.23572229	    -16.17990179	      3.14100459	      2.79039879	      9.12694478	      2.55523333	     -7.76750414	      2.35649375	    -14.74870204	      7.74968475	     -0.84820303	     -4.57168071	      2.61875178
      1.78300000	      1.16079646	      3.42307397	     -1.68519223	      1.38731348	      1.02541196	      0.23620604	     15.58321078	     -2.72669557	     -0.70630800	    -58.92755028	      5.36232123	    -16.18225167	      3.03202711	      2.35915321	      9.07061982	      2.86681557	     -7.50678578	      2.41153548	    -14.72490476	      7.69310045	     -0.88233854	     -4.46748612	      2.43424226
      1.78716667	      1.12453003	      3.36440071	     -1.40963000	      1.39182737	      1.02565228	      0.23565243	     16.02098520	     -2.67823743	     -0.83124800	    -58.31574356	      5.49627997	    -16.18792077	      2.99908023	      1.99004269	      9.02438838	      3.11125146	     -7.28794966	      2.46643465	    -14.59666350	      7.67886809	     -0.88311729	     -4.38224762	      2.38287600
      1.79133333	      1.10867706	      3.27253237	     -1.10953506	      1.39636368	      1.02593931	      0.23508335	     16.40001120	     -2.59906437	     -0.97560719	    -57.62978346	      5.57255825	    -16.17603858	      2.94157534	      1.59788006	      8.94243691	      3.42278818	     -7.07983803	      2.54525690	    -14.54788711	      7.65046396	     -0.89855793	     -4.28816860	      2.19021139
      1.79550000	      1.09406479	      3.20804231	     -0.83717056	      1.40086351	      1.02617816	      0.23454505	     16.78565119	     -2.54945695	     -1.08719296	    -56.94702441	      5.65663629	    -16.17128626	      2.83619701	      1.19003022	      8.88906669	      3.75454717	     -6.83290644	      2.61404718	    -14.57934980	      7.59550849	     -0.92241191	     -4.20548542	      1.87986827
      1.79966667	      1.10084611	      3.14232151	     -0.56871312	      1.40536593	      1.02643149	      0.23403121	     17.13565799	     -2.49987469	     -1.19269251	    -56.23405996	      5.74951198	    -16.13456901	      2.74902372	      0.77375728	      8.82577639	      4.02911259	     -6.60574967	      2.67664708	    -14.52934166	      7.54918075	     -0.97190559	     -4.12273400	      1.74626027
      1.80383333	      1.05905160	      3.08605013	     -0.29714307	      1.40990321	      1.02656761	      0.23351992	     17.53113553	     -2.46501546	     -1.29619781	    -55.51168613	      5.85842047	    -16.09791755	      2.72256386	      0.42002859	      8.76620893	      4.27747559	     -6.40618527	      2.74330128	    -14.40151658	      7.53762809	     -0.96264779	     -4.04453328	      1.69132000
      1.80800000	      1.05032349	      3.01185216	     -0.00353200	      1.41438275	      1.02675430	      0.23300259	     17.86273061	     -2.41252255	     -1.40608619	    -54.73143017	      5.90949581	    -16.05706908	      2.63384284	      0.03388543	      8.68746009	      4.60678463	     -6.21161675	      2.82761198	    -14.42172831	      7.48940865	     -0.99227189	     -3.96953275	      1.37480498
      1.81216667	      1.00720037	      2.97064373	      0.25689033	      1.41887743	      1.02682446	      0.23253026	     18.24883846	     -2.39421535	     -1.48148850	    -53.97602835	      6.00845712	    -15.99933990	      2.61067748	     -0.30798535	      8.63641770	      4.83712005	     -6.01863255	      2.89149388	    -14.29630268	      7.47946953	     -0.98034976	     -3.91212594	      1.33613976
      1.81633333	      1.02350454	      2.91122831	      0.54107222	      1.42338760	      1.02699594	      0.23203315	     18.53369500	     -2.36615997	     -1.58229338	    -53.15308932	      6.05995571	    -15.92611480	      2.53205405	     -0.72341538	      8.56610793	      5.15722593	     -5.81941412	      2.97080454	    -14.31127776	      7.43457080	     -1.03590073	     -3.84894008	      1.06414133
      1.82050000	      0.97591854	      2.86635802	      0.80960507	      1.42784446	      1.02701438	      0.23157025	     18.90063082	     -2.35271055	     -1.66267398	    -52.34533941	      6.13945275	    -15.85485772	      2.51170831	     -1.04278602	      8.50464584	      5.39634969	     -5.65847929	      3.04876160	    -14.19548094	      7.42586510	     -1.02491341	     -3.79225222	      1.01850302
      1.82466667	      0.94919031	      2.80863563	      1.09909397	      1.43232961	      1.02706552	      0.23109094	     19.21206964	     -2.32809952	     -1.74674566	    -51.48422101	      6.18753987	    -15.76618566	      2.47898445	     -1.37929152	      8.42680816	      5.65914210	     -5.52113036	      3.14271086	    -14.13885051	      7.40899021	     -1.03798331	     -3.72577077	      0.86746825
      1.82883333	      0.95215340	      2.76448473	      1.36917156	      1.43677380	      1.02713460	      0.23064716	     19.49135584	     -2.31679588	     -1.81531844	    -50.61485777	      6.21239644	    -15.71205892	      2.41465505	     -1.76877744	      8.36023436	      5.95809131	     -5.32649915	      3.22693381	    -14.12818457	      7.37280545	     -1.08517968	     -3.68082456	      0.57057841
      1.83300000	      0.90932418	      2.73493867	      1.63848583	      1.44125649	      1.02708225	      0.23021497	     19.81705414	     -2.32638331	     -1.88070928	    -49.74688297	      6.26464756	    -15.61674928	      2.39060569	     -2.09069003	      8.30468003	      6.18951163	     -5.17248484	      3.30587604	    -14.02784879	      7.36192340	     -1.07146925	     -3.64455948	      0.51303746
      1.83716667	      0.88674146	      2.68987766	      1.90302620	      1.44573296	      1.02705469	      0.22979108	     20.10266704	     -2.31891004	     -1.94119899	    -48.84094690	      6.29395016	    -15.52833774	      2.36726795	     -2.43213151	      8.22978416	      6.42730307	     -5.02081873	      3.41251299	    -13.94448043	      7.35088670	     -1.08591435	     -3.59166836	      0.40826855
      1.84133333	      0.89256355	      2.66696785	      2.16044149	      1.45017959	      1.02703126	      0.22939004	     20.35694393	     -2.33498744	     -1.99285630	    -47.93348202	      6.29572843	    -15.46906738	      2.31982242	     -2.80891512	      8.17600913	      6.68888653	     -4.86007819	      3.52872677	    -13.91308226	      7.32557560	     -1.14254333	     -3.56939815	      0.16317479
